<mxfile host="65bd71144e">
    <diagram id="e1xf8jnrH3_m2cHPAWJP" name="Page-1">
        <mxGraphModel dx="1043" dy="753" grid="1" gridSize="10" guides="1" tooltips="1" connect="1" arrows="1" fold="1" page="1" pageScale="1" pageWidth="827" pageHeight="1169" math="0" shadow="0">
            <root>
                <mxCell id="0"/>
                <mxCell id="1" parent="0"/>
                <mxCell id="40" value="Envia comando" style="edgeStyle=none;html=1;dashed=1;endArrow=classic;endFill=1;" edge="1" parent="1" source="11" target="30">
                    <mxGeometry relative="1" as="geometry">
                        <Array as="points">
                            <mxPoint x="190" y="510"/>
                        </Array>
                    </mxGeometry>
                </mxCell>
                <mxCell id="11" value="" style="html=1;points=[];perimeter=orthogonalPerimeter;" vertex="1" parent="1">
                    <mxGeometry x="60" y="480" width="10" height="305" as="geometry"/>
                </mxCell>
                <mxCell id="32" value="" style="edgeStyle=none;html=1;dashed=1;endArrow=none;endFill=0;" edge="1" parent="1" source="12" target="11">
                    <mxGeometry relative="1" as="geometry"/>
                </mxCell>
                <mxCell id="12" value="Actor" style="shape=umlActor;verticalLabelPosition=bottom;verticalAlign=top;html=1;" vertex="1" parent="1">
                    <mxGeometry x="50" y="380" width="30" height="60" as="geometry"/>
                </mxCell>
                <mxCell id="20" value="" style="edgeStyle=none;html=1;endArrow=none;endFill=0;dashed=1;exitX=0.5;exitY=1;exitDx=0;exitDy=0;startArrow=none;" edge="1" parent="1" source="66">
                    <mxGeometry relative="1" as="geometry">
                        <mxPoint x="490" y="439.9999999999977" as="sourcePoint"/>
                        <mxPoint x="475" y="1000" as="targetPoint"/>
                    </mxGeometry>
                </mxCell>
                <mxCell id="57" value="" style="edgeStyle=none;html=1;dashed=1;startArrow=none;startFill=0;endArrow=none;endFill=0;" edge="1" parent="1" source="60">
                    <mxGeometry relative="1" as="geometry">
                        <mxPoint x="655.4" y="890" as="targetPoint"/>
                    </mxGeometry>
                </mxCell>
                <mxCell id="14" value="Firmware" style="ellipse;shape=umlEntity;whiteSpace=wrap;html=1;" vertex="1" parent="1">
                    <mxGeometry x="625.4" y="380" width="60" height="60" as="geometry"/>
                </mxCell>
                <mxCell id="26" value="API Laser" style="ellipse;shape=umlEntity;whiteSpace=wrap;html=1;" vertex="1" parent="1">
                    <mxGeometry x="445" y="380" width="60" height="60" as="geometry"/>
                </mxCell>
                <mxCell id="34" value="" style="edgeStyle=none;html=1;dashed=1;endArrow=none;endFill=0;" edge="1" parent="1" source="29" target="30">
                    <mxGeometry relative="1" as="geometry"/>
                </mxCell>
                <mxCell id="29" value="Instância goldbox" style="ellipse;shape=umlEntity;whiteSpace=wrap;html=1;" vertex="1" parent="1">
                    <mxGeometry x="255" y="380" width="60" height="60" as="geometry"/>
                </mxCell>
                <mxCell id="42" value="" style="edgeStyle=none;html=1;dashed=1;endArrow=classic;endFill=1;" edge="1" parent="1" source="30" target="41">
                    <mxGeometry relative="1" as="geometry">
                        <Array as="points">
                            <mxPoint x="400" y="510"/>
                        </Array>
                    </mxGeometry>
                </mxCell>
                <mxCell id="44" value="Solicita a Mutex" style="edgeLabel;html=1;align=center;verticalAlign=middle;resizable=0;points=[];" vertex="1" connectable="0" parent="42">
                    <mxGeometry x="-0.1451" relative="1" as="geometry">
                        <mxPoint as="offset"/>
                    </mxGeometry>
                </mxCell>
                <mxCell id="48" value="" style="edgeStyle=none;html=1;dashed=1;startArrow=none;startFill=0;endArrow=classic;endFill=1;" edge="1" parent="1" source="30" target="47">
                    <mxGeometry relative="1" as="geometry">
                        <Array as="points">
                            <mxPoint x="390" y="630"/>
                        </Array>
                    </mxGeometry>
                </mxCell>
                <mxCell id="50" value="verificar_goldbox(instancia): bool" style="edgeLabel;html=1;align=center;verticalAlign=middle;resizable=0;points=[];" vertex="1" connectable="0" parent="48">
                    <mxGeometry x="-0.1451" y="-1" relative="1" as="geometry">
                        <mxPoint x="13" y="-11" as="offset"/>
                    </mxGeometry>
                </mxCell>
                <mxCell id="59" style="edgeStyle=none;html=1;dashed=1;startArrow=none;startFill=0;endArrow=classic;endFill=1;" edge="1" parent="1" source="30" target="60">
                    <mxGeometry relative="1" as="geometry">
                        <mxPoint x="350" y="740" as="targetPoint"/>
                        <Array as="points">
                            <mxPoint x="460" y="740"/>
                        </Array>
                    </mxGeometry>
                </mxCell>
                <mxCell id="62" value="Envia comando" style="edgeLabel;html=1;align=center;verticalAlign=middle;resizable=0;points=[];" vertex="1" connectable="0" parent="59">
                    <mxGeometry x="-0.2837" y="-1" relative="1" as="geometry">
                        <mxPoint x="146" y="-11" as="offset"/>
                    </mxGeometry>
                </mxCell>
                <mxCell id="67" value="" style="edgeStyle=none;html=1;dashed=1;startArrow=none;startFill=0;endArrow=classic;endFill=1;" edge="1" parent="1" source="30" target="66">
                    <mxGeometry relative="1" as="geometry"/>
                </mxCell>
                <mxCell id="69" value="seta_goldbox(instancia):None" style="edgeLabel;html=1;align=center;verticalAlign=middle;resizable=0;points=[];" vertex="1" connectable="0" parent="67">
                    <mxGeometry x="0.1618" y="-1" relative="1" as="geometry">
                        <mxPoint x="-15" y="-11" as="offset"/>
                    </mxGeometry>
                </mxCell>
                <mxCell id="30" value="" style="html=1;points=[];perimeter=orthogonalPerimeter;" vertex="1" parent="1">
                    <mxGeometry x="279.6" y="500" width="10.8" height="460" as="geometry"/>
                </mxCell>
                <mxCell id="45" style="edgeStyle=none;html=1;dashed=1;endArrow=classic;endFill=1;" edge="1" parent="1" source="41" target="30">
                    <mxGeometry relative="1" as="geometry">
                        <Array as="points">
                            <mxPoint x="400" y="550"/>
                        </Array>
                    </mxGeometry>
                </mxCell>
                <mxCell id="46" value="Obtem a Mutex" style="edgeLabel;html=1;align=center;verticalAlign=middle;resizable=0;points=[];" vertex="1" connectable="0" parent="45">
                    <mxGeometry x="-0.0553" relative="1" as="geometry">
                        <mxPoint x="-15" as="offset"/>
                    </mxGeometry>
                </mxCell>
                <mxCell id="41" value="" style="html=1;points=[];perimeter=orthogonalPerimeter;" vertex="1" parent="1">
                    <mxGeometry x="469.6" y="502.65" width="10.8" height="57.35" as="geometry"/>
                </mxCell>
                <mxCell id="43" value="" style="edgeStyle=none;html=1;endArrow=none;endFill=0;dashed=1;exitX=0.5;exitY=1;exitDx=0;exitDy=0;entryX=0.52;entryY=0.005;entryDx=0;entryDy=0;entryPerimeter=0;" edge="1" parent="1" source="26" target="41">
                    <mxGeometry relative="1" as="geometry">
                        <mxPoint x="475" y="440" as="sourcePoint"/>
                        <mxPoint x="475.20000000000005" y="665.4083499999999" as="targetPoint"/>
                    </mxGeometry>
                </mxCell>
                <mxCell id="51" value="goldbox_correta= :bool" style="edgeStyle=none;html=1;dashed=1;startArrow=none;startFill=0;endArrow=classic;endFill=1;" edge="1" parent="1" source="47" target="30">
                    <mxGeometry x="0.0137" y="-9" relative="1" as="geometry">
                        <Array as="points">
                            <mxPoint x="380" y="670"/>
                        </Array>
                        <mxPoint as="offset"/>
                    </mxGeometry>
                </mxCell>
                <mxCell id="47" value="" style="html=1;points=[];perimeter=orthogonalPerimeter;" vertex="1" parent="1">
                    <mxGeometry x="469.6" y="620" width="10.8" height="60" as="geometry"/>
                </mxCell>
                <mxCell id="49" value="" style="edgeStyle=none;html=1;endArrow=none;endFill=0;dashed=1;exitX=0.5;exitY=1;exitDx=0;exitDy=0;startArrow=none;" edge="1" parent="1" source="41" target="47">
                    <mxGeometry relative="1" as="geometry">
                        <mxPoint x="475" y="560" as="sourcePoint"/>
                        <mxPoint x="475" y="860" as="targetPoint"/>
                    </mxGeometry>
                </mxCell>
                <mxCell id="53" value="Verifica se é a goldbox correta" style="shape=umlFrame;tabWidth=110;tabHeight=30;tabPosition=left;html=1;boundedLbl=1;labelInHeader=1;width=186;height=30;" vertex="1" parent="1">
                    <mxGeometry x="120" y="1040" width="560" height="380" as="geometry"/>
                </mxCell>
                <mxCell id="54" value="[Se for]" style="text" vertex="1" parent="53">
                    <mxGeometry width="100" height="20" relative="1" as="geometry">
                        <mxPoint x="20" y="40" as="offset"/>
                    </mxGeometry>
                </mxCell>
                <mxCell id="55" value="[Se não]" style="line;strokeWidth=1;dashed=1;labelPosition=center;verticalLabelPosition=bottom;align=left;verticalAlign=top;spacingLeft=20;spacingTop=15;" vertex="1" parent="53">
                    <mxGeometry y="110" width="560" height="15.2" as="geometry"/>
                </mxCell>
                <mxCell id="63" style="edgeStyle=none;html=1;dashed=1;startArrow=none;startFill=0;endArrow=classic;endFill=1;" edge="1" parent="1" source="60" target="30">
                    <mxGeometry relative="1" as="geometry">
                        <Array as="points">
                            <mxPoint x="470" y="780"/>
                        </Array>
                    </mxGeometry>
                </mxCell>
                <mxCell id="64" value="Confirmação de recebimento" style="edgeLabel;html=1;align=center;verticalAlign=middle;resizable=0;points=[];" vertex="1" connectable="0" parent="63">
                    <mxGeometry x="-0.5883" y="2" relative="1" as="geometry">
                        <mxPoint x="-4" y="-12" as="offset"/>
                    </mxGeometry>
                </mxCell>
                <mxCell id="60" value="" style="html=1;points=[];perimeter=orthogonalPerimeter;" vertex="1" parent="1">
                    <mxGeometry x="650" y="725" width="10.8" height="60" as="geometry"/>
                </mxCell>
                <mxCell id="61" value="" style="edgeStyle=none;html=1;dashed=1;startArrow=none;startFill=0;endArrow=none;endFill=0;exitX=0.5;exitY=1;exitDx=0;exitDy=0;" edge="1" parent="1" source="14" target="60">
                    <mxGeometry relative="1" as="geometry">
                        <mxPoint x="655" y="440" as="sourcePoint"/>
                        <mxPoint x="655.4" y="890" as="targetPoint"/>
                    </mxGeometry>
                </mxCell>
                <mxCell id="65" value="" style="endArrow=none;dashed=1;html=1;" edge="1" parent="1">
                    <mxGeometry width="50" height="50" relative="1" as="geometry">
                        <mxPoint x="210" y="810" as="sourcePoint"/>
                        <mxPoint x="740" y="810" as="targetPoint"/>
                    </mxGeometry>
                </mxCell>
                <mxCell id="70" style="edgeStyle=none;html=1;dashed=1;startArrow=none;startFill=0;endArrow=classic;endFill=1;" edge="1" parent="1" source="66" target="30">
                    <mxGeometry relative="1" as="geometry">
                        <Array as="points">
                            <mxPoint x="380" y="850"/>
                        </Array>
                    </mxGeometry>
                </mxCell>
                <mxCell id="66" value="" style="html=1;points=[];perimeter=orthogonalPerimeter;" vertex="1" parent="1">
                    <mxGeometry x="469.6" y="830" width="10.8" height="20" as="geometry"/>
                </mxCell>
                <mxCell id="68" value="" style="edgeStyle=none;html=1;endArrow=none;endFill=0;dashed=1;exitX=0.5;exitY=1;exitDx=0;exitDy=0;startArrow=none;" edge="1" parent="1" source="47" target="66">
                    <mxGeometry relative="1" as="geometry">
                        <mxPoint x="475" y="680" as="sourcePoint"/>
                        <mxPoint x="475" y="1000" as="targetPoint"/>
                    </mxGeometry>
                </mxCell>
            </root>
        </mxGraphModel>
    </diagram>
</mxfile>